<?xml version="1.0" encoding="UTF-8"?>
<svg id="Calque_1" xmlns="http://www.w3.org/2000/svg" version="1.1" viewBox="0 0 568.33 199.09">
  <!-- Generator: Adobe Illustrator 29.7.1, SVG Export Plug-In . SVG Version: 2.1.1 Build 8)  -->
  <defs>
    <style>
      .st0 {
        fill: #ff3e55;
      }

      .st1 {
        fill: #fff;
      }
    </style>
  </defs>
  <path class="st0" d="M239.39,47.55c-.05,26.18-19.99,45.37-47.07,45.32-27.04-.05-46.92-19.3-46.87-45.49.05-26.18,19.99-45.37,47.03-45.32,27.09.05,46.96,19.3,46.91,45.49Z"/>
  <path class="st1" d="M524.77,48.05c0,2.96-.27,7.48-.63,9.22l-56.27-.1c2.07,6.96,7.29,10.45,15.46,10.46,5.57,0,11.57-2.33,16.28-6.93l21.19,17.78c-8.37,9.03-21.94,14.92-38.99,14.89-27.57-.05-45.98-18-45.93-44.7.05-27.31,18.35-46.15,44.88-46.11,26.09.05,43.98,18.52,44.02,45.48ZM467.99,38.47l25.92.05c-2.25-6.7-6.59-9.93-13.03-9.94-6.61-.01-10.88,3.2-12.89,9.89Z"/>
  <path class="st1" d="M136.3,140.03l-.1,56.1-30.96-.06.08-46.36c.02-8.61-4.07-13.22-10.85-13.23-6-.01-10.79,3.89-10.81,13.37l-.08,46.19-30.96-.06.08-46.36c.02-8.61-4.06-13.22-10.84-13.23-6-.01-10.8,3.89-10.81,13.37l-.08,46.19-30.96-.06.15-86.19,29.48.05-.02,8.87c4.88-7.47,12.55-11.19,23.33-11.18s20.17,4.91,25.55,13.35c5.23-8.87,13.85-13.28,25.68-13.26,19.92.04,32.16,12.67,32.12,32.5Z"/>
  <path class="st1" d="M136.49,34.41l-.1,56.1-30.96-.06.08-46.36c.02-8.61-4.07-13.22-10.85-13.23-6-.01-10.79,3.89-10.81,13.37l-.08,46.19-30.96-.06.08-46.36c.02-8.61-4.06-13.22-10.84-13.23-6-.01-10.8,3.89-10.81,13.37l-.08,46.19-30.96-.06L.34,4.08l29.48.05-.02,8.87c4.88-7.47,12.55-11.19,23.33-11.18s20.17,4.91,25.55,13.35c5.23-8.87,13.85-13.28,25.68-13.26,19.92.04,32.16,12.67,32.12,32.5Z"/>
  <path class="st1" d="M234.92,196.31l-29.75-.05v-7.57c-5.13,5.73-12.61,9.81-23.49,9.79-23.05-.04-39.19-20.51-39.14-45.56.04-24.88,16.26-45.28,39.4-45.24,10.78.02,18.26,4.21,23.38,10.13v-7.74s29.76.05,29.76.05l-.15,86.19ZM174.47,153.06c-.02,9.66,6.41,16.63,15.28,16.64,8.87.02,15.32-6.93,15.34-16.59.02-9.65-6.41-16.62-15.28-16.63s-15.32,6.93-15.34,16.58Z"/>
  <path class="st1" d="M276.83,137.07h5.13s17.44-26.84,17.44-26.84l37.22.07-30.25,40.65,30.1,45.54-37.05-.07-18.38-32.13h-4.27s-.06,32.09-.06,32.09l-30.96-.06.16-88.54,30.96.06-.05,29.23Z"/>
  <path class="st1" d="M419.55,153.5c0,2.96-.27,7.48-.63,9.23l-56.27-.1c2.07,6.96,7.29,10.45,15.46,10.46,5.57,0,11.57-2.33,16.28-6.93l21.19,17.78c-8.37,9.04-21.94,14.92-38.99,14.89-27.57-.05-45.98-18-45.93-44.7.05-27.31,18.35-46.15,44.88-46.11,26.09.05,43.98,18.52,44.02,45.48ZM362.77,143.92l25.92.05c-2.25-6.7-6.59-9.93-13.03-9.94-6.61-.01-10.88,3.2-12.89,9.89Z"/>
  <path class="st1" d="M486.43,109.08l-1.79,30.96c-3.57-.96-8.61-2.01-13.57-2.02-8.61-.02-13.83,3.02-13.85,12.5l-.08,46.19-31.05-.06.15-86.19,29.57.05-.02,8.7c4.8-7.65,12.37-11.03,22.89-11.01,3.39,0,6.52.62,7.74.88Z"/>
  <path class="st1" d="M558.47,139.22c-9.83-3.67-21.13-6.39-29.04-6.4-6-.01-7.48,1.2-7.49,3.21,0,3.12,5.91,3.31,13.73,4.63l5.22.87c18.35,3.08,27.47,12.14,27.44,26.49-.04,19.92-14.93,31.11-40.16,31.07-17.13-.03-32.26-3.1-40.95-8.34l9.96-24.16c9.56,5.24,20.08,7.86,31.21,7.88,6.78.01,8.96-1.11,8.97-3.64,0-2.78-3.56-3.31-13.13-4.8l-3.39-.54c-21.3-3.34-30.86-11.89-30.83-27.89.03-18.96,13.88-29.37,37.97-29.33,14.18.03,21.74,1.43,37.91,6.77l-7.44,24.16Z"/>
  <polygon class="st0" points="251.62 92.97 251.79 0 339.1 46.64 251.62 92.97"/>
  <rect class="st0" x="314.57" y="31.51" width="88.38" height="30.09" transform="translate(311.56 405.23) rotate(-89.9)"/>
  <rect class="st1" x="363.44" y="31.6" width="88.38" height="30.09" transform="translate(360.25 454.18) rotate(-89.9)"/>
</svg>